<svg xmlns="http://www.w3.org/2000/svg"
    xmlns:xlink="http://www.w3.org/1999/xlink" version="1.1" x="0px" y="0px" width="374.416px" height="88.818px" viewBox="0 0 374.416 88.818" xml:space="preserve" preserveAspectRatio="xMinYMin meet">
    <path d="M362.527,69.345c-4.609,0.798-8.071-0.053-10.577-2.623c-6.552-6.75-5.596-23.878-3.4-38.546   c-0.535,0.07-1.073,0.134-1.62,0.198c-0.247,0.03-0.498,0.066-0.76,0.091c-0.516,0.073-1.054,0.143-1.583,0.209   c-2.229,15.397-2.913,32.963,4.615,40.724c3.399,3.498,8.109,4.757,13.992,3.725c1.039-0.191,1.73-1.183,1.552-2.227   C364.566,69.856,363.581,69.157,362.527,69.345z"/>
    <path d="M372.573,19.73c-5.385-0.218-13.095,0.257-22.915,1.378c0.757-4.268,1.552-8.108,2.163-11.083   c1.572-7.656,1.737-8.457,0.692-9.467c-0.464-0.451-1.21-0.661-1.842-0.508c-1.66,0.393-2.064,1.589-5.265,12.412   c-0.77,2.59-1.737,5.91-2.879,9.526c-2.859,0.376-5.809,0.783-8.961,1.253c-1.051,0.148-1.771,1.129-1.614,2.18   c0.146,0.949,0.96,1.625,1.888,1.625c0.103,0,0.19-0.004,0.282-0.014c17.349-2.588,30.592-3.775,38.291-3.469   c1.05,0.041,1.95-0.783,2.001-1.841C374.449,20.66,373.631,19.77,372.573,19.73z"/>
    <path d="M323.556,28.96c0.176,0.044,0.347,0.06,0.544,0.06c1.241,0,2.34-0.962,2.665-2.354c0.373-1.61-0.444-3.141-1.871-3.465   c-0.18-0.042-0.353-0.068-0.541-0.068c-1.241,0-2.349,0.974-2.668,2.359C321.303,27.106,322.126,28.623,323.556,28.96z"/>
    <path d="M278.044,8.375c-0.664-1.844-2.167-3.035-3.924-3.112c-0.963-0.044-3.408,0.229-5.088,3.798   c-0.311,0.593-1.242,3.301-2.976,8.556c-2.736,0.904-5.47,1.468-6.95,1.68c-0.052,0.01-0.089,0.036-0.143,0.051   c-7.563,1.379-17.059,2.402-26.372,2.756c0.18-0.944,0.355-1.862,0.513-2.707c1.671-8.687,1.802-9.409,0.763-10.408   c-0.473-0.447-1.21-0.648-1.828-0.5c-1.671,0.399-2.078,1.599-5.273,12.422c-0.122,0.414-0.25,0.871-0.39,1.334   c-6.907,0.033-13.417-0.353-18.57-1.297c-1.039-0.185-2.039,0.504-2.221,1.545c-0.188,1.036,0.492,2.033,1.546,2.225   c13.42,2.458,36.582,1.335,52.374-1.593c0.043,0,0.088,0,0.128-0.002c0.043-0.006,0.077-0.016,0.105-0.019   c9.447-1.783,12.867-4.197,12.867-4.197v0.053c0.817-0.474,1.58-0.995,2.255-1.575c0.037-0.027,0.068-0.061,0.105-0.091   c0.028-0.03,0.06-0.064,0.1-0.094c0.523-0.467,1.017-0.965,1.409-1.499c0.052-0.077,0.063-0.155,0.108-0.228   c0,0,0-0.004,0.003-0.006C278.523,12.803,278.699,10.167,278.044,8.375z M273.195,13.588c-0.583,0.732-1.418,1.383-2.408,1.965   c0.877-2.617,1.489-4.397,1.688-4.806c0.572-1.233,1.213-1.64,1.466-1.662c0.148,0.01,0.37,0.208,0.507,0.592   C274.752,10.523,274.531,11.981,273.195,13.588z"/>
    <path d="M206.18,34.666c0.174,0.039,0.367,0.063,0.544,0.063c1.238,0,2.341-0.969,2.668-2.365   c0.373-1.606-0.447-3.124-1.876-3.464c-0.174-0.037-0.351-0.058-0.544-0.058c-1.236,0-2.338,0.965-2.657,2.337   c-0.145,0.649-0.113,1.313,0.105,1.884C204.725,33.883,205.363,34.468,206.18,34.666z"/>
    <path d="M136.825,58.803c-5.962,3.667-11.497,7.403-14.806,10.781c-0.251,0.231-0.493,0.463-0.721,0.698   c-5.122,5.185-4.399,9.403-3.832,11.025c0.962,2.696,3.445,4.486,6.472,4.687c3.958,0.256,7.647-2.194,9.846-6.557   c0.575-1.104,1.623-4.093,5.046-14.53c-0.692,0.416-4.419,2.803-5.091,3.243c-1.977,5.973-2.916,8.7-3.28,9.415   c-0.04,0.05-0.063,0.101-0.083,0.135c-1.506,2.958-3.807,4.634-6.188,4.47c-1.488-0.087-2.67-0.92-3.108-2.146   c-0.735-2.05,0.62-4.932,3.679-7.763c4.695-4.795,14.712-10.666,23.547-15.838c6.782-3.983,12.643-7.413,15.62-10.03v-0.01   c3.619-3.178,4.106-6.693,3.357-8.925c-0.638-1.859-2.121-3.089-3.869-3.206c-0.969-0.063-3.429,0.174-5.171,3.689   c-0.487,0.904-2.443,6.388-3.79,10.341c-2.448,1.514-5.225,3.148-8.089,4.825c-1.492,0.873-3.007,1.769-4.536,2.677   c1.079-3.34,2.785-8.642,3.784-11.747c3.896-12.02,8.306-25.647,8.887-26.885c0.578-1.233,1.213-1.625,1.475-1.657   c0.151,0.012,0.367,0.207,0.51,0.588c0.361,1.011,0.012,2.89-2.149,4.875c-0.777,0.717-0.829,1.931-0.114,2.709   c0.712,0.776,1.922,0.836,2.702,0.125c3.548-3.251,3.966-6.787,3.16-9.007c-0.666-1.842-2.169-3.038-3.929-3.12   c-0.963-0.036-3.414,0.232-5.091,3.807c-0.564,1.092-3.207,9.187-9.083,27.384c-1.333,4.103-3.613,11.19-5.154,15.943V58.803    M161.403,43.508c-0.467,0.398-1.051,0.849-1.686,1.314c0.581-1.61,1.731-4.758,1.925-5.115c0.593-1.196,1.219-1.634,1.498-1.634   h0.017c0.143,0.016,0.354,0.218,0.493,0.611c0.065,0.209,0.107,0.45,0.107,0.72C163.757,40.464,163.16,41.965,161.403,43.508z"/>
    <path d="M71.416,18.287c-0.415-0.975-1.56-1.407-2.528-0.975c-5.646,2.517-11.344,4.45-18.166,6.55   c-1.284,0.392-0.877,0.309-2.2,0.673c0.278,0.438,0.546,0.901,0.791,1.384c0.117,0.218,0.228,0.45,0.333,0.672   c0.217,0.468,0.428,0.93,0.63,1.437c1.102-0.319,0.498-0.158,1.574-0.487c6.953-2.16,12.793-4.131,18.616-6.724   C71.416,20.376,71.849,19.252,71.416,18.287z"/>
    <path d="M13.216,75.289c-0.433,1.253-1.264,1.921-1.839,2.11c-0.151,0.046-0.265,0.068-0.373,0.068   c-0.248,0-0.413-0.104-0.538-0.184c-0.886-0.621-0.354-3.859,0.561-7.42c-0.225-0.034-0.532-0.054-0.886-0.059   c-0.438-0.02-0.937-0.007-1.412,0.007c-0.681,0.017-1.321,0.051-1.677,0.077c-1.233,5.215-1.204,8.827,1.21,10.53   c0.823,0.583,1.76,0.871,2.728,0.871c0.513,0,1.037-0.08,1.561-0.244c0.239-0.083,0.479-0.178,0.706-0.293   c1.611-0.762,2.919-2.288,3.582-4.217c0.188-0.554,0.632-2.07,1.199-4.07c-1.558-0.354-2.76-0.735-3.671-1.083   C13.723,73.649,13.347,74.913,13.216,75.289z"/>
    <path d="M50.306,64.973c0.006-0.006,0.006-0.006,0.011-0.01h-0.008c-6.609,4.455-13.434,5.218-19.667,4.523   c1.219-0.865,3.622-2.91,4.801-3.928C52.618,49.3,50.608,32.263,45.083,24.781c-3.587-4.863-8.679-6.411-12.986-3.979   c-0.273,0.146-0.532,0.308-0.8,0.491c-0.268,0.172,0.048,4.902,0.048,4.902c0.886-0.873,1.769-1.569,2.634-2.056   c2.768-1.573,5.553,0.013,7.455,2.218c-4.084,0.998-8.855,2.083-13.429,2.493c0.245-2.404,0.419-5.489,0.229-6.718   c-0.279-3.242-2.133-5.896-4.818-7.108c-0.384-0.161-0.791-0.307-1.207-0.406c-0.396-0.115-0.806-0.185-1.196-0.218   c-2.778-0.279-5.473,0.974-7.078,3.384c-1.76,2.64-1.981,6.078-0.578,9.19c1.384,3.09,4.063,5.198,7.155,5.629   c1.544,0.207,3.093,0.299,4.618,0.299c5.77,0,12.854-1.747,18.399-3.109c1.02,2.278,1.697,5.074,1.697,8.273   c0,7.063-3.149,15.927-12.408,24.698c-2.335,2.026-5.598,4.463-7.998,5.673l-0.009-0.002c-1.811-0.436-3.542-0.945-5.162-1.464   c1.096-4.131,2.622-10.474,3.804-15.38h0.025c1.666-6.953,2.056-11.002,2.859-15.67c-0.519,0.03-1.042,0.041-1.566,0.052   c-0.168,0-0.324,0.015-0.479,0.015c-0.094,0-0.188-0.015-0.273-0.015c-0.523,0-1.036-0.022-1.56-0.052l-2.176-0.174l-0.003,0.007   c-5.586,9.926-8.906,20.184-10.051,23.576c-0.578,1.744-1.107,3.367-1.589,4.93c-0.868,0-1.387,0.068-1.387,0.068   c-3.775,0.615-7.415,2.476-7.249,6.186c0.057,1.301,0.62,2.45,1.594,3.309c0.889,0.777,2.07,1.254,3.343,1.542   c0.012-0.505,0.029-1.025,0.089-1.567c0.028-0.252,0.054-0.496,0.094-0.754c0.06-0.49,0.143-0.998,0.256-1.528   c-0.552-0.148-0.993-0.339-1.258-0.577c-0.199-0.168-0.279-0.337-0.285-0.592c-0.034-0.595,0.529-1.081,1.353-1.468   c0,0,0.003,0.004,0.006,0.003c0.009,0,0.012,0,0.014-0.014c0.074-0.009,0.123-0.016,0.191-0.039   c4.615-1.15,7.271-0.125,7.271-0.125s0.023-0.017,0.061-0.034c-0.006,0.013-0.012,0.034-0.018,0.048   c0.148,0.031,0.279,0.078,0.41,0.121c0.655,0.209,1.35,0.442,2.078,0.69c4.966,1.686,11.825,4.012,19.359,4.012   c4.609,0,9.468-0.902,14.297-3.317c0.063-0.025,0.097-0.028,0.173-0.057c1.654-0.763,4.004-2.383,5.1-3.165   c1.165,1.399,2.694,2.17,4.511,2.17c0.398,0,0.812-0.024,1.238-0.101c4.206-0.705,9.043-5.944,12.224-10.478   c0.398,1.607,1.033,3.008,2.067,3.979c0.737,0.705,1.953,1.452,3.735,1.452c0.447,0,0.926-0.062,1.441-0.149   c3.838-0.672,6.662-5.631,9.196-9.072h0.006c0.404,0.951,0.92,1.821,1.635,2.534c0.916,0.907,2.432,1.859,4.806,1.859   c0.541,0,1.128-0.056,1.771-0.165c6.594-1.181,8.857-8.922,10.859-15.739c1.532-5.219,3.109-10.602,6.099-11.058   c2.321-0.352,3.417,1.942,4.61,7.192c-0.945,2.453-2.811,7.54-3.927,10.814c-3.807,11.132-6.894,22.334-6.922,22.448   c-0.281,1.015,0.316,2.076,1.33,2.345c1.02,0.288,2.078-0.311,2.357-1.33c2.363-8.593,6.014-19.797,8.735-27.474   c0.678,2.218,1.58,3.959,3.161,4.826c0.479,0.263,1.155,0.51,2.004,0.51c0.569,0,1.202-0.114,1.914-0.375   c5.854-2.258,8.422-13.775,6.941-19.816c-0.911-3.673-3.314-5.661-6.435-5.293c-1.526,0.183-2.472-0.074-5.108,4.977   c0.284,0.628,0.544,1.279,0.769,1.955c0.108,0.333,0.217,0.67,0.316,1.019c0.228,0.766,0.424,1.533,0.601,2.305   c1.941-4.493,2.756-6.004,3.861-6.448c0.483-0.065,1.628-0.187,2.271,2.407c0.223,0.92,0.325,1.946,0.325,3.038   c0,5.05-2.267,11.251-4.918,12.279c-0.23,0.08-0.544,0.161-0.714,0.08c-1.037-0.572-1.806-4.296-2.366-7.006   c-1.165-5.595-2.731-13.26-9.391-12.238c-5.385,0.82-7.329,7.403-9.191,13.76c-1.771,6.045-3.602,12.289-7.864,13.052   c-0.413,0.07-0.783,0.106-1.097,0.106c-1.344,0-1.891-0.551-2.112-0.76c-1.498-1.495-1.925-5.494-1.088-10.467H91.8   c0.017-0.065,0.02-0.155,0.025-0.236c0.33-1.712,0.86-3.785,1.458-3.747c0.922,0.067-0.131,3.983,0.43,4.116   c0.354,0.077,2.525-6.122,2.554-6.231c0.633-2.254-0.483-3.817-1.788-4.314c0,0-2.693-0.753-4.351,2.362   c-0.757,1.424-1.589,4.252-2.124,7.423h0.006c-0.273,1.643-0.479,3.491-0.484,5.321c-3.001,5.716-6.816,10.86-8.932,11.284   c-1.051,0.215-1.518-0.06-1.794-0.329c-0.771-0.733-1.406-2.655-1.406-6.005c-0.006-1.485,0.15-3.382,0.401-5.327   c0.006-0.047,0.006-0.096,0.017-0.131c0-0.018,0-0.027,0.009-0.047c0.128-0.934,0.886-5.858,1.803-5.795   c0.916,0.063-0.134,3.983,0.436,4.117c0.345,0.072,2.522-6.122,2.548-6.229c0.633-2.254-0.483-3.82-1.794-4.324   c-1.35-0.52-3.234,0-4.196,1.979c-0.678,1.374-1.883,5.396-2.549,9.876h-0.022c-0.196,1.311-0.348,2.729-0.419,4.169   c-3.194,5.449-7.864,12.467-12.397,13.216c-0.717,0.118-2.591,0.457-3.382-3.743c-1.373-7.191,2.352-18.646,5.455-19.285v0.019   c0.547-0.019,0.618,0.122,0.646,0.215c0.743,2.094-1.25,7.042-4.217,12.263c-0.105,0.184-0.364,4.321,0.342,6.815   c4.447-6.552,9.031-16.026,7.482-20.374c-0.336-0.924-1.464-3.055-4.829-2.724c-0.077,0.011-0.134,0.026-0.205,0.033   c-6.44,1.335-9.966,15.794-8.445,23.764c0.063,0.318,0.148,0.605,0.223,0.894c-0.837,0.84-1.501,1.422-1.982,1.794 M24.148,29.004   c-1.063-0.016-2.104-0.067-3.106-0.198c-1.777-0.259-3.349-1.513-4.191-3.402c-0.319-0.716-0.507-1.451-0.567-2.167   c-0.088-1.202,0.188-2.366,0.829-3.319c1.122-1.678,2.87-1.925,4.129-1.603c1.811,0.481,3.004,2.047,3.18,4.211   c0,0.048,0.009,0.108,0.021,0.154C24.569,23.429,24.472,26.199,24.148,29.004z M14.316,65.199   c-0.188-0.056-0.364-0.114-0.547-0.181c-0.43-0.12-0.852-0.229-1.253-0.312c0.526-1.697,1.031-3.19,1.355-4.163   c1.361-4.117,3.34-9.397,5.678-14.674l1.662-2.205c-0.336,1.969-0.791,4.224-1.469,7.042h0.012   c-1.134,4.758-2.629,10.986-3.708,15.071C15.449,65.574,14.857,65.367,14.316,65.199z"/>
    <path d="M185.116,64.15c0.358,0.829,0.829,1.533,1.418,2.113c1.165,1.141,2.674,1.726,4.513,1.726c0.573,0,1.185-0.06,1.822-0.167   v-0.006c4.642-1.034,7.944-5.526,10.26-10.555c0.188,2.038,0.678,3.717,1.686,4.905c0.891,1.055,2.109,1.631,3.539,1.673h0.14   c7.309-0.313,13.108-13.478,18.578-30.378c-2.936,18.805-4.763,42.294,4.209,51.417c2.574,2.624,5.849,3.941,9.769,3.941   c1.105,0,2.267-0.117,3.463-0.319c1.042-0.192,1.736-1.176,1.555-2.215c-0.171-1.051-1.165-1.747-2.216-1.559   c-4.211,0.736-7.434-0.088-9.84-2.533c-8.79-8.933-5.504-35.274-2.298-53.56c-0.521,0.016-1.048,0.043-1.569,0.047   c-0.259,0.006-0.521,0.006-0.76,0.019c-0.771,0.023-1.532,0.033-2.295,0.042h-0.774h-1.626   c-4.174,13.482-10.501,30.862-16.295,31.256c-0.345-0.017-0.507-0.122-0.649-0.299c-1.595-1.891-0.578-9.053-0.031-12.903   c0.618-4.346,0.868-6.146-0.311-7.216c-0.523-0.488-1.247-0.676-1.95-0.513c-0.777,0.177-1.35,0.8-1.47,1.583   c-0.908,5.956-4.789,21.616-11.785,23.375v0.025c-2.075,0.368-2.756-0.288-2.97-0.517c-0.937-0.918-1.808-3.471-0.651-10.357   c0.02-0.018,0.028-0.044,0.039-0.068c0,0,1.484-6.453,2.76-6.268c0.917,0.137-0.587,3.943-0.04,4.14   c0.339,0.115,3.212-5.786,3.255-5.893c0.885-2.164-0.037-3.85-1.282-4.506c-1.283-0.659-3.208-0.371-4.401,1.485   c0,0-2.323,3.006-4.095,10.482h-0.009c-0.393,2.323-0.577,4.326-0.586,6.087c-3.053,4.319-7.272,10.482-10.217,10.742   c-1.07,0.101-1.503-0.236-1.748-0.525c-0.678-0.819-1.082-2.799-0.695-6.127c0.154-1.485,0.536-3.338,1.009-5.25   c0.008-0.043,0.011-0.087,0.028-0.125c0.006-0.011,0.006-0.025,0.02-0.048c0.236-0.907,1.552-5.716,2.454-5.546   c0.912,0.172-0.589,3.943-0.042,4.134c0.345,0.114,3.215-5.786,3.26-5.887c0.883-2.166-0.045-3.846-1.284-4.498   c-1.281-0.67-3.212-0.375-4.401,1.472c-0.829,1.292-2.483,5.145-3.679,9.521h-0.012c-0.495,1.839-0.945,3.914-1.173,5.954   c0,0.006-0.003,0.017-0.003,0.024c0-0.009,0-0.016,0.003-0.024c-3.314,5.213-7.438,10.613-9.807,10.86   c-0.923,0.095-2.261-0.147-3.266-1.324c-1.666-1.912-1.885-5.403-0.638-9.782c0.883-2.764,1.483-4.639,2.573-7.973   c-0.657,0.404-4.324,2.603-5.008,3.014c-0.857,2.661-1.028,3.221-1.233,3.863c-2.099,7.317-0.396,11.318,1.398,13.388   c1.714,1.976,4.231,2.949,6.702,2.611c3.013-0.417,6.424-3.955,9.585-8.402c0.278,0.982,0.683,1.885,1.275,2.601   c0.654,0.793,1.782,1.669,3.545,1.874c0.444,0.053,0.931,0.06,1.449,0.023c4.134-0.285,7.864-5.418,10.8-9.052"/>
    <path d="M342.821,28.9c-0.276,0.033-0.553,0.07-0.825,0.113c-0.581,0.075-1.147,0.141-1.731,0.228   c-4.026,11.795-9.22,24.039-13.903,24.352c-0.333-0.017-0.507-0.127-0.652-0.305c-1.592-1.889-0.572-9.049-0.025-12.901   c0.62-4.348,0.874-6.142-0.316-7.228c-0.526-0.476-1.247-0.666-1.956-0.5c-0.758,0.181-1.344,0.801-1.449,1.586   c-0.923,5.947-4.792,21.615-11.8,23.371v0.024c-2.069,0.373-2.75-0.3-2.973-0.514l0.012-0.011   c-0.939-0.922-1.808-3.472-0.655-10.354c0.023-0.018,0.032-0.051,0.043-0.069c0,0,1.483-6.448,2.762-6.266   c0.911,0.132-0.589,3.938-0.045,4.128c0.339,0.124,3.215-5.776,3.251-5.878c0.889-2.168-0.036-3.851-1.272-4.507   c-1.287-0.662-3.218-0.374-4.404,1.477c0,0-2.332,3.011-4.095,10.488h-0.012c-0.393,2.319-0.581,4.332-0.586,6.093v0.002   c-3.047,4.314-7.275,10.479-10.217,10.748c-1.07,0.091-1.503-0.239-1.742-0.531c-0.684-0.815-1.094-2.802-0.703-6.123   c0.159-1.489,0.538-3.346,1.008-5.252c0.014-0.047,0.022-0.085,0.037-0.125c0-0.023,0.006-0.036,0.011-0.051   c0.239-0.914,1.555-5.719,2.458-5.548c0.914,0.171-0.587,3.951-0.043,4.136c0.336,0.117,3.215-5.79,3.254-5.885   c0.892-2.174-0.039-3.845-1.272-4.503c-1.293-0.669-3.218-0.375-4.407,1.479c-0.829,1.287-2.494,5.144-3.682,9.517h-0.018   c-0.486,1.836-0.934,3.907-1.161,5.941c0,0.004,0,0.006,0,0.009c-3.317,5.216-7.446,10.616-9.81,10.867   c-0.928,0.101-2.261-0.151-3.274-1.327c-1.657-1.911-1.873-5.403-0.632-9.776c0.88-2.773,1.48-4.64,2.574-7.976   c-0.652,0.41-4.325,2.598-5.009,3.01c-0.857,2.664-1.025,3.219-1.238,3.859c-2.093,7.315-0.388,11.327,1.406,13.396   c1.714,1.981,4.22,2.944,6.703,2.609c3.015-0.41,6.414-3.965,9.575-8.411h0.009c0.281,0.986,0.672,1.888,1.275,2.602   c0.66,0.8,1.782,1.679,3.548,1.879c0.436,0.059,0.928,0.063,1.452,0.021c4.134-0.285,7.87-5.426,10.8-9.055   c0.361,0.827,0.837,1.526,1.412,2.104l-0.006,0.004c1.168,1.153,2.683,1.735,4.516,1.735c0.575,0,1.193-0.063,1.834-0.162v-0.017   c4.627-1.023,7.938-5.517,10.259-10.548c0.177,2.034,0.675,3.71,1.681,4.903c0.882,1.057,2.109,1.629,3.545,1.673h0.131   c7.081-0.305,12.735-12.641,18.055-28.751C343.952,28.752,343.393,28.823,342.821,28.9z"/>
    <path d="M285.243,31.045c-0.154-0.459-0.368-0.891-0.624-1.264c-0.766-1.137-1.928-1.851-3.24-1.94   c-0.12-0.004-0.265-0.008-0.425,0c-0.937,0.043-2.474,0.444-3.835,2.242c0.171-0.221,0.336-0.451,0.519-0.639   c-0.501,0.52-0.991,1.206-1.436,2.094c-0.008,0.021-0.022,0.057-0.037,0.088c-0.057,0.112-0.122,0.256-0.205,0.448   c-0.299,0.725-0.774,1.982-1.301,3.442c-0.727,1.999-1.552,4.364-2.235,6.357c-2.454,1.515-5.225,3.147-8.092,4.825   c-1.475,0.86-2.973,1.752-4.481,2.646c1.076-3.343,2.741-8.526,3.729-11.577c1.498-4.607,3.059-9.443,4.462-13.738   c-1.461,0.444-2.967,0.834-4.416,1.157c-1.057,3.257-2.27,7.021-3.69,11.39c-1.307,4.064-3.562,11.041-5.097,15.788l-0.051,0.032   c-0.587,0.357-1.159,0.719-1.746,1.082c-0.684,0.429-1.378,0.875-2.047,1.306c-0.285,0.175-0.547,0.357-0.823,0.544   c-0.763,0.491-1.506,0.994-2.229,1.486c-0.165,0.123-0.353,0.233-0.518,0.353c-0.849,0.591-1.644,1.162-2.415,1.738   c-0.19,0.148-0.382,0.291-0.569,0.434c-0.758,0.574-1.469,1.149-2.145,1.713c-0.136,0.123-0.272,0.242-0.406,0.363   c-0.658,0.57-1.279,1.13-1.828,1.687c-0.023,0.024-0.049,0.051-0.08,0.073c-0.239,0.232-0.489,0.464-0.718,0.69   c-0.057,0.061-0.103,0.117-0.162,0.187c-0.486,0.51-0.92,1-1.307,1.486c-0.111,0.145-0.211,0.282-0.311,0.418   c-0.361,0.483-0.678,0.962-0.942,1.425c-0.071,0.114-0.14,0.232-0.196,0.346c-0.254,0.469-0.467,0.92-0.632,1.358   c-0.04,0.092-0.071,0.182-0.111,0.282c-0.071,0.222-0.12,0.424-0.183,0.638c-0.057,0.211-0.14,0.435-0.179,0.634   c-0.021,0.068-0.023,0.138-0.049,0.212c-0.074,0.404-0.114,0.794-0.143,1.159c-0.003,0.058-0.003,0.101-0.003,0.148   c-0.011,0.363-0.003,0.719,0.028,1.037c0.003,0.031,0.009,0.064,0.015,0.094c0.028,0.32,0.071,0.612,0.131,0.873   c0.012,0.023,0.018,0.04,0.021,0.07c0.06,0.235,0.122,0.45,0.179,0.626c0.012,0.019,0.015,0.031,0.015,0.042   c0.239,0.675,0.589,1.292,0.99,1.841c0.94,1.241,2.275,2.143,3.842,2.577c0.521,0.144,1.07,0.232,1.637,0.268   c0.385,0.03,0.761,0.007,1.134-0.017c0.173-0.016,0.344-0.024,0.515-0.045c0.308-0.037,0.602-0.098,0.897-0.171   c0.171-0.043,0.339-0.07,0.507-0.124c0.276-0.085,0.549-0.198,0.825-0.306c0.177-0.07,0.356-0.132,0.521-0.221   c0.245-0.111,0.484-0.256,0.718-0.391c0.19-0.118,0.384-0.221,0.569-0.345c0.188-0.132,0.37-0.286,0.555-0.43   c0.217-0.17,0.436-0.33,0.649-0.523c0.105-0.097,0.19-0.208,0.305-0.306c0.86-0.853,1.629-1.875,2.298-3.055   c0.088-0.166,0.193-0.315,0.276-0.491c0.034-0.04,0.057-0.084,0.079-0.128c0.575-1.107,1.623-4.103,5.046-14.53   c-0.687,0.417-4.422,2.8-5.091,3.243c-1.979,5.966-2.919,8.697-3.286,9.41c-0.028,0.049-0.06,0.103-0.074,0.137   c-0.122,0.225-0.25,0.435-0.367,0.646c-0.33,0.56-0.686,1.059-1.076,1.512c-0.065,0.073-0.134,0.155-0.205,0.222   c-0.401,0.435-0.812,0.802-1.244,1.108c-0.063,0.045-0.128,0.071-0.196,0.112c-0.456,0.297-0.917,0.527-1.409,0.675   c-0.04,0.009-0.083,0.016-0.135,0.024c-0.509,0.137-1.036,0.205-1.56,0.171c-1.486-0.084-2.671-0.918-3.101-2.144   c-0.1-0.252-0.16-0.528-0.18-0.803c-0.193-1.962,1.176-4.484,3.85-6.969c0.065-0.056,0.147-0.132,0.219-0.188   c0.493-0.491,1.034-0.998,1.635-1.512c0.268-0.228,0.566-0.463,0.852-0.704c0.444-0.358,0.888-0.717,1.366-1.083   c0.359-0.269,0.737-0.548,1.116-0.826c0.459-0.332,0.929-0.675,1.421-1.018c0.404-0.285,0.829-0.575,1.256-0.872   c3.063-2.08,6.521-4.208,10.02-6.288c1.896-1.136,3.799-2.257,5.658-3.34c6.793-3.986,12.65-7.417,15.629-10.03v-0.009   C285.512,36.801,286,33.278,285.243,31.045z M281.726,32.999c0,0.232-0.043,0.485-0.105,0.751c-0.009,0.043,0,0.07-0.021,0.118   c-0.042,0.158-0.131,0.334-0.199,0.508c-0.327,0.829-0.931,1.757-2.035,2.719c-0.453,0.407-1.043,0.844-1.678,1.317   c0.578-1.602,1.731-4.758,1.916-5.117c0.068-0.134,0.135-0.235,0.203-0.346c0.014-0.022,0.028-0.042,0.039-0.067   c0.143-0.229,0.282-0.434,0.419-0.592c0.355-0.422,0.666-0.624,0.834-0.624h0.021c0.153,0.013,0.35,0.218,0.492,0.591   c0,0.004,0.009,0.01,0.009,0.019c0.022,0.07,0.022,0.18,0.04,0.268c0.022,0.146,0.065,0.288,0.065,0.45V32.999z"/>
</svg>
