<svg width="2168" height="2168" viewBox="0 0 2168 2168" fill="none" xmlns="http://www.w3.org/2000/svg">
<g clip-path="url(#clip0_892_17286)">
<rect width="2168" height="2168" rx="400" fill="#A5B6F5"/>
<g filter="url(#filter0_f_892_17286)">
<ellipse cx="-98.6668" cy="2287.01" rx="746.776" ry="1194.12" transform="rotate(-126.883 -98.6668 2287.01)" fill="#145BFF"/>
</g>
<g filter="url(#filter1_f_892_17286)">
<ellipse cx="1661.33" cy="2168.01" rx="746.776" ry="1194.12" transform="rotate(-126.883 1661.33 2168.01)" fill="#C7EAFE"/>
</g>
<g clip-path="url(#clip1_892_17286)">
<path d="M1420.13 1434.73L1429.26 1403.05C1440.09 1365.39 1436.08 1330.64 1417.83 1305.02C1400.77 1281.45 1372.97 1267.62 1338.93 1265.99L694.707 1257.8C692.686 1257.77 690.701 1257.25 688.923 1256.29C687.145 1255.32 685.625 1253.95 684.494 1252.27C683.363 1250.59 682.654 1248.66 682.428 1246.65C682.201 1244.64 682.463 1242.61 683.192 1240.72C684.287 1237.56 686.285 1234.79 688.939 1232.75C691.593 1230.72 694.785 1229.51 698.119 1229.28L1348.57 1220.74C1425.34 1217.24 1509.27 1154.56 1538.52 1078.05L1575.54 981.043C1576.59 978.321 1577.11 975.422 1577.08 972.504C1577.03 970.955 1576.86 969.413 1576.56 967.893C1556.37 877.665 1507.27 796.516 1436.76 736.802C1366.24 677.088 1278.16 642.081 1185.93 637.111C1093.71 632.141 1002.38 657.48 925.869 709.271C849.356 761.061 791.843 836.465 762.09 924.001C730.504 900.497 692.427 887.356 653.084 886.382C613.741 885.407 575.061 896.647 542.353 918.558C509.645 940.469 484.512 971.978 470.405 1008.76C456.297 1045.54 453.906 1085.79 463.56 1123.99C425.232 1124.98 387.552 1134.11 353.016 1150.78C318.48 1167.45 287.876 1191.28 263.231 1220.68C238.587 1250.09 220.464 1284.4 210.063 1321.34C199.662 1358.29 197.22 1397.02 202.9 1434.98C203.311 1437.98 204.789 1440.73 207.061 1442.72C209.333 1444.71 212.247 1445.82 215.268 1445.83H1405.04C1408.42 1445.86 1411.71 1444.8 1414.43 1442.8C1417.16 1440.8 1419.16 1437.96 1420.13 1434.73Z" fill="white"/>
<path d="M1634.82 988.386C1629.13 988.386 1623.16 988.557 1616.91 988.899C1615.97 988.925 1615.04 989.128 1614.18 989.496C1612.62 990.013 1611.21 990.907 1610.08 992.099C1608.95 993.29 1608.13 994.743 1607.7 996.328L1582.11 1083.94C1571.19 1121.6 1575.2 1156.35 1593.54 1181.97C1602.8 1194.09 1614.73 1203.92 1628.4 1210.68C1642.06 1217.45 1657.1 1220.98 1672.35 1220.99L1809.76 1229.53C1811.68 1229.59 1813.56 1230.1 1815.25 1231.02C1816.94 1231.94 1818.39 1233.24 1819.48 1234.83C1820.64 1236.52 1821.38 1238.46 1821.63 1240.5C1821.88 1242.53 1821.64 1244.6 1820.93 1246.52C1819.84 1249.69 1817.84 1252.46 1815.19 1254.49C1812.53 1256.52 1809.34 1257.73 1806.01 1257.97L1663.31 1266.51C1585.78 1270.09 1502.27 1332.69 1473.02 1409.11L1462.7 1436.09C1462.27 1437.22 1462.11 1438.44 1462.23 1439.64C1462.36 1440.85 1462.77 1442 1463.42 1443.02C1464.08 1444.03 1464.97 1444.88 1466.01 1445.48C1467.06 1446.09 1468.23 1446.44 1469.43 1446.51H1960.99C1963.98 1446.58 1966.91 1445.63 1969.3 1443.82C1971.69 1442 1973.39 1439.43 1974.12 1436.52C1988.77 1384.1 1991.12 1328.99 1980.97 1275.5C1970.82 1222.02 1948.45 1171.61 1915.61 1128.22C1882.77 1084.83 1840.36 1049.63 1791.68 1025.37C1742.99 1001.11 1689.37 988.453 1634.99 988.386H1634.82Z" fill="white"/>
</g>
<g filter="url(#filter2_f_892_17286)">
<ellipse cx="87.7094" cy="-66.876" rx="1131.04" ry="1013.77" transform="rotate(-126.883 87.7094 -66.876)" fill="#FE99CE"/>
</g>
<circle cx="410" cy="408" r="299" fill="white"/>
<path d="M321 504.976C321 537.429 353.446 557.597 379.184 541.143L526.967 446.667C552.344 430.443 552.344 390.557 526.967 374.333L379.184 279.857C353.446 263.403 321 283.571 321 316.024V504.976Z" fill="black"/>
</g>
<defs>
<filter id="filter0_f_892_17286" x="-1953.98" y="554.015" width="3710.63" height="3465.99" filterUnits="userSpaceOnUse" color-interpolation-filters="sRGB">
<feFlood flood-opacity="0" result="BackgroundImageFix"/>
<feBlend mode="normal" in="SourceGraphic" in2="BackgroundImageFix" result="shape"/>
<feGaussianBlur stdDeviation="400" result="effect1_foregroundBlur_892_17286"/>
</filter>
<filter id="filter1_f_892_17286" x="-193.979" y="435.015" width="3710.63" height="3465.99" filterUnits="userSpaceOnUse" color-interpolation-filters="sRGB">
<feFlood flood-opacity="0" result="BackgroundImageFix"/>
<feBlend mode="normal" in="SourceGraphic" in2="BackgroundImageFix" result="shape"/>
<feGaussianBlur stdDeviation="400" result="effect1_foregroundBlur_892_17286"/>
</filter>
<filter id="filter2_f_892_17286" x="-1582.44" y="-1769.85" width="3340.31" height="3405.95" filterUnits="userSpaceOnUse" color-interpolation-filters="sRGB">
<feFlood flood-opacity="0" result="BackgroundImageFix"/>
<feBlend mode="normal" in="SourceGraphic" in2="BackgroundImageFix" result="shape"/>
<feGaussianBlur stdDeviation="306.308" result="effect1_foregroundBlur_892_17286"/>
</filter>
<clipPath id="clip0_892_17286">
<rect width="2168" height="2168" rx="400" fill="white"/>
</clipPath>
<clipPath id="clip1_892_17286">
<rect width="1787" height="809" fill="white" transform="translate(200 637)"/>
</clipPath>
</defs>
</svg>
